<?xml version="1.0" encoding="UTF-8"?>
<svg width="42px" height="23px" viewBox="0 0 42 23" version="1.1" xmlns="http://www.w3.org/2000/svg" xmlns:xlink="http://www.w3.org/1999/xlink">
    <title>Fill 40</title>
    <g id="Page-1" stroke="none" stroke-width="1" fill="none" fill-rule="evenodd">
        <g id="Design-System" transform="translate(-228.000000, -1728.000000)" fill="#133156">
            <g id="Group-4-Copy-12" transform="translate(77.000000, 1719.000000)">
                <path d="M153.326395,20.3199603 C153.35771,20.8950212 153.661463,21.0508104 153.918243,21.2118275 C156.081047,22.5752446 157.977675,24.2983361 160.066367,25.755854 C161.791809,26.9592996 163.590317,28.0581887 165.378388,29.1654423 C165.795918,29.4226513 166.030778,29.7279564 166.152906,30.1848684 C166.231192,30.4734444 166.2552,30.7275167 165.999463,30.9125818 C165.761472,31.0840545 165.475464,31.0767355 165.232253,30.9345386 C164.844994,30.7086965 164.472349,30.4567153 164.109098,30.1932329 C162.297019,28.8800029 160.256343,27.9055361 158.501675,26.5222533 C157.141572,25.4495034 155.828441,24.3182018 154.381701,23.3594185 C153.684427,22.8972786 152.938093,22.5041461 152.247081,22.0315506 C150.593664,20.9023402 150.639592,19.4688702 152.058149,18.1535492 C153.262722,17.037931 154.576896,16.0540542 155.784601,14.9321627 C157.443237,13.3889084 159.143627,11.8822489 160.91604,10.4592346 C161.315825,10.1361549 161.785546,9.90403942 162.156103,9.50881576 C162.799099,8.8250161 162.961935,8.9243448 163.652947,9.59141542 C164.043337,9.96677334 164.017241,10.2616227 163.760461,10.6380262 C163.354413,11.2339984 162.803274,11.6815003 162.245872,12.12482 C159.566376,14.2556819 156.891054,16.3928173 154.214689,18.5268159 C153.975654,18.7171088 153.706347,18.8833537 153.669813,19.2283902 C153.91198,19.4510956 154.191725,19.3496758 154.443287,19.3486302 C158.53299,19.3392201 162.62478,19.4260021 166.70822,19.2566205 C168.852235,19.1677474 171.011907,19.0422796 173.159053,18.887536 C175.439808,18.7233822 177.727871,18.4923123 180.030547,18.5205426 C183.849899,18.567593 187.661945,18.1190455 191.488604,18.2424222 C192.280866,18.2685613 192.584619,18.632418 192.818436,19.2493015 C192.977097,19.6685732 192.758938,19.8923242 192.397775,19.8776862 C191.006357,19.818089 189.60137,20.089936 188.22561,19.7365349 C187.912462,19.657072 187.592008,19.5587888 187.295562,19.6549808 C186.103515,20.04184 184.873891,19.7971777 183.669318,19.9090532 C181.025311,20.1537155 178.357297,19.9874706 175.737298,20.2499075 C174.009769,20.4224257 172.239444,20.1202574 170.542186,20.6723158 C170.272879,20.7611889 169.913804,20.6534956 169.617358,20.5656682 C169.165382,20.4318358 168.739502,20.3931499 168.305271,20.6085363 C167.675845,20.9211603 167.007797,20.6493134 166.366889,20.667088 C163.189489,20.7611889 160.006869,20.7936014 156.831556,20.6691791 C155.670824,20.6231743 154.479821,21.0048056 153.326395,20.3199603" id="Fill-40" transform="translate(171.935484, 20.041250) scale(-1, 1) translate(-171.935484, -20.041250) "></path>
            </g>
        </g>
    </g>
</svg>