<?xml version="1.0" encoding="UTF-8"?>
<svg width="23px" height="30px" viewBox="0 0 23 30" version="1.1" xmlns="http://www.w3.org/2000/svg" xmlns:xlink="http://www.w3.org/1999/xlink">
    <title>Fill 40</title>
    <g id="Page-1" stroke="none" stroke-width="1" fill="none" fill-rule="evenodd">
        <g id="MarginEdge-Module-Library-R4" transform="translate(-663.000000, -109.000000)" fill="#F06246" stroke="#F06246">
            <g id="nav-dropdown" transform="translate(509.000000, 64.000000)">
                <path d="M153.008016,60.696714 C154.454328,62.000714 155.722644,63.648714 157.119396,65.042714 C158.273235,66.193714 159.475936,67.244714 160.671657,68.303714 C160.950867,68.549714 161.107924,68.841714 161.189593,69.278714 C161.241945,69.554714 161.257999,69.797714 161.086983,69.974714 C160.927833,70.138714 160.736573,70.131714 160.573933,69.995714 C160.314965,69.779714 160.065769,69.538714 159.822856,69.286714 C158.61108,68.030714 157.246437,67.098714 156.073053,65.775714 C155.163524,64.749714 154.285406,63.667714 153.31794,62.750714 C152.851658,62.308714 152.352568,61.932714 151.890474,61.480714 C150.784799,60.400714 150.815512,59.029714 151.764131,57.771714 C152.569655,56.704714 153.448471,55.763714 154.256089,54.690714 C155.365254,53.214714 156.50234,51.773714 157.68759,50.412714 C157.954935,50.103714 158.269047,49.881714 158.516847,49.503714 C158.946831,48.849714 159.055724,48.944714 159.517818,49.582714 C159.77888,49.941714 159.761429,50.223714 159.589714,50.583714 C159.318182,51.153714 158.949623,51.581714 158.576877,52.005714 C156.785041,54.043714 154.995997,56.087714 153.206256,58.128714 C153.046407,58.310714 152.866316,58.469714 152.841885,58.799714 C153.003828,59.012714 153.190899,58.915714 153.359124,58.914714 C156.093994,58.905714 158.830261,58.988714 161.560943,58.826714 C162.994691,58.741714 164.438909,58.621714 165.874751,58.473714 C167.399941,58.316714 168.930016,58.095714 170.469864,58.122714 C173.023946,58.167714 175.573141,57.738714 178.132109,57.856714 C178.661912,57.881714 178.865038,58.229714 179.021396,58.819714 C179.127496,59.220714 178.981608,59.434714 178.740091,59.420714 C177.80962,59.363714 176.870076,59.623714 175.950076,59.285714 C175.740668,59.209714 175.526373,59.115714 175.328134,59.207714 C174.530987,59.577714 173.708711,59.343714 172.903187,59.450714 C171.135084,59.684714 169.350927,59.525714 167.598879,59.776714 C166.443644,59.941714 165.259789,59.652714 164.124797,60.180714 C163.944706,60.265714 163.704585,60.162714 163.506345,60.078714 C163.204099,59.950714 162.919304,59.913714 162.628925,60.119714 C162.208014,60.418714 161.761277,60.158714 161.332688,60.175714 C159.207894,60.265714 157.079609,60.296714 154.95621,60.177714 C154.180004,60.133714 153.383555,60.498714 152.612235,59.843714 C152.633175,60.393714 152.836301,60.542714 153.008016,60.696714 Z" id="Fill-40" transform="translate(165.056525, 59.577150) scale(-1, -1) rotate(90.000000) translate(-165.056525, -59.577150) "></path>
            </g>
        </g>
    </g>
</svg>