<?xml version="1.0" encoding="UTF-8"?>
<svg width="17px" height="23px" viewBox="0 0 17 23" version="1.1" xmlns="http://www.w3.org/2000/svg" xmlns:xlink="http://www.w3.org/1999/xlink">
    <title>Group 15</title>
    <defs>
        <polygon id="path-1" points="0 0 4.48188424 0 4.48188424 4.59482465 0 4.59482465"></polygon>
        <polygon id="path-3" points="0 0 16.999923 0 16.999923 23 0 23"></polygon>
    </defs>
    <g id="Page-1" stroke="none" stroke-width="1" fill="none" fill-rule="evenodd">
        <g id="MarginEdge-Module-Library-R4" transform="translate(-542.000000, -164.000000)">
            <g id="nav-dropdown" transform="translate(509.000000, 64.000000)">
                <g id="Group-15" transform="translate(33.000000, 100.000000)">
                    <g id="Group-3">
                        <mask id="mask-2" fill="white">
                            <use xlink:href="#path-1"></use>
                        </mask>
                        <g id="Clip-2"></g>
                        <path d="M1.0148859,3.98541749 L3.88749031,3.98541749 L3.88749031,1.0402567 L1.0148859,3.98541749 Z M4.1845589,4.59482465 L0.297248313,4.59482465 C0.17708574,4.59482465 0.0687340187,4.52059017 0.0225176445,4.40686926 C-0.023441972,4.29288512 0.00197703379,4.16179019 0.0872205684,4.07465681 L3.97453115,0.0891603469 C4.05951793,0.0020269698 4.18763999,-0.0240340705 4.29830253,0.0230863963 C4.40947859,0.0702068631 4.48188424,0.181295338 4.48188424,0.304756226 L4.48188424,4.29025269 C4.48188424,4.45846486 4.34888378,4.59482465 4.1845589,4.59482465 L4.1845589,4.59482465 Z" id="Fill-1" fill="#FFFFFF" mask="url(#mask-2)"></path>
                    </g>
                    <g id="Group-6" transform="translate(0.000077, 0.000000)">
                        <mask id="mask-4" fill="white">
                            <use xlink:href="#path-3"></use>
                        </mask>
                        <g id="Clip-5"></g>
                        <path d="M0.594393924,22.3905928 L16.405529,22.3905928 L16.405529,0.609354506 L4.30762283,0.609354506 L0.594393924,4.41637233 L0.594393924,22.3905928 Z M16.7028544,23 L0.297068583,23 C0.133000455,23 0,22.8636402 0,22.695428 L0,4.29001577 C0,4.20920022 0.0313244314,4.13180683 0.0870408381,4.07468314 L3.97435142,0.0891866712 C4.03006783,0.0320629768 4.10555457,-5.26485663e-05 4.18437917,-5.26485663e-05 L16.7028544,-5.26485663e-05 C16.8669225,-5.26485663e-05 16.999923,0.136307138 16.999923,0.304519307 L16.999923,22.695428 C16.999923,22.8636402 16.8669225,23 16.7028544,23 L16.7028544,23 Z" id="Fill-4" fill="#FFFFFF" mask="url(#mask-4)"></path>
                    </g>
                    <path d="M13.7351726,7.35395173 L6.35749876,7.35395173 C6.19317387,7.35395173 6.06017342,7.21759195 6.06017342,7.04911653 C6.06017342,6.88090437 6.19317387,6.74454458 6.35749876,6.74454458 L13.7351726,6.74454458 C13.8994975,6.74454458 14.032498,6.88090437 14.032498,7.04911653 C14.032498,7.21759195 13.8994975,7.35395173 13.7351726,7.35395173" id="Fill-7" fill="#FFFFFF"></path>
                    <path d="M13.7351726,11.3419227 L3.26510981,11.3419227 C3.10078492,11.3419227 2.96778447,11.2055629 2.96778447,11.0370875 C2.96778447,10.8688753 3.10078492,10.7325155 3.26510981,10.7325155 L13.7351726,10.7325155 C13.8994975,10.7325155 14.032498,10.8688753 14.032498,11.0370875 C14.032498,11.2055629 13.8994975,11.3419227 13.7351726,11.3419227" id="Fill-9" fill="#FFFFFF"></path>
                    <path d="M13.7351726,15.3298936 L3.26510981,15.3298936 C3.10078492,15.3298936 2.96778447,15.1935338 2.96778447,15.0250584 C2.96778447,14.8568463 3.10078492,14.7204865 3.26510981,14.7204865 L13.7351726,14.7204865 C13.8994975,14.7204865 14.032498,14.8568463 14.032498,15.0250584 C14.032498,15.1935338 13.8994975,15.3298936 13.7351726,15.3298936" id="Fill-11" fill="#FFFFFF"></path>
                    <path d="M9.93544207,19.3178646 L3.26513548,19.3178646 C3.1008106,19.3178646 2.96781014,19.1815048 2.96781014,19.0130294 C2.96781014,18.8448172 3.1008106,18.7084574 3.26513548,18.7084574 L9.93544207,18.7084574 C10.0995102,18.7084574 10.2327674,18.8448172 10.2327674,19.0130294 C10.2327674,19.1815048 10.0995102,19.3178646 9.93544207,19.3178646" id="Fill-13" fill="#FFFFFF"></path>
                </g>
            </g>
        </g>
    </g>
</svg>