<?xml version="1.0" encoding="UTF-8"?>
<svg width="53px" height="46px" viewBox="0 0 53 46" version="1.1" xmlns="http://www.w3.org/2000/svg" xmlns:xlink="http://www.w3.org/1999/xlink">
    <title>Stroke 1</title>
    <g id="Page-1" stroke="none" stroke-width="1" fill="none" fill-rule="evenodd" stroke-linecap="round" stroke-linejoin="round">
        <g id="MarginEdge-Module-Library-R4" transform="translate(-524.000000, -293.000000)" stroke="#F06246">
            <g id="nav-dropdown" transform="translate(509.000000, 64.000000)">
                <path d="M53.7436285,235.952491 C55.2252244,234.23794 54.158289,231.329105 52.1781687,230.223343 C50.1996015,229.117582 47.7566767,229.348984 45.5436011,229.835085 C31.0599922,233.012595 19.5830599,246.718133 18.9991186,261.535645 C18.9090425,263.806183 19.0643461,266.149713 20.0318872,268.205932 C22.1455685,272.703523 27.506647,274.660348 32.4452998,275.208569 C43.6830646,276.452551 55.3960583,272.417765 63.4827141,264.51592 C67.5252654,260.564998 70.7695566,254.346644 67.9632215,249.440605 C66.6105275,247.073779 64.1318829,245.599948 61.6982763,244.371497 C50.7353988,238.831819 38.3778954,236.07984 26.1011499,236.444804" id="Stroke-1" transform="translate(43.997239, 252.430800) rotate(26.000000) translate(-43.997239, -252.430800) "></path>
            </g>
        </g>
    </g>
</svg>